# xmcd
#
# Track frame offsets: 
#        150
#        22762
#        45293
#        60174
#        77389
#        97463
#        114490
#        129753
#        145485
#        159650
#        176054
#        187678
#
# Disc length: 2867 seconds
#
# Revision: 0
# Processed by: cddbd v1.5.2PL0 Copyright (c) Steve Scherf et al.
# Submitted via: ExactAudioCopy v1.2
#
DISCID=8a0b310c
DTITLE=Kenny "Blues Boss" Wayne - Inspired by the Blues
DYEAR=2018
DGENRE=Blues
TTITLE0=I Knew I'd Be Playing the Blues
TTITLE1=Start Rockin'
TTITLE2=How 'Bout That
TTITLE3=I Like That Woman
TTITLE4=Jimmy and Johnny
TTITLE5=Make up Your Mind
TTITLE6=Lake Country Boogie
TTITLE7=Mr. Blueberry Hill
TTITLE8=An Old Brick Wall
TTITLE9=That Girl Needs Help
TTITLE10=That Raggedy Shack
TTITLE11=Georgia on My Mind (Live) [Bonus Track]
EXTD=
EXTT0=
EXTT1=
EXTT2=
EXTT3=
EXTT4=
EXTT5=
EXTT6=
EXTT7=
EXTT8=
EXTT9=
EXTT10=
EXTT11=
PLAYORDER=
